<svg width="29" height="30" viewBox="0 0 29 30" fill="none" xmlns="http://www.w3.org/2000/svg">
<ellipse cx="14.5704" cy="15.2711" rx="14.4324" ry="14.4351" fill="#4154f1"/>
<g clip-path="url(#clip0_511_7098)">
<path d="M21.8705 11.5784L20.571 12.8781C20.4386 13.0107 20.2243 13.0107 20.0918 12.8781L16.9629 9.74865C16.8304 9.61614 16.8304 9.40187 16.9629 9.26936L18.2624 7.96963C18.7895 7.44241 19.6465 7.44241 20.1764 7.96963L21.8705 9.66407C22.4005 10.1913 22.4005 11.0484 21.8705 11.5784ZM15.8467 10.3858L8.44441 17.7895L7.84682 21.215C7.76507 21.6774 8.16817 22.0777 8.63046 21.9988L12.0553 21.3983L19.4576 13.9946C19.5901 13.8621 19.5901 13.6478 19.4576 13.5153L16.3287 10.3858C16.1934 10.2533 15.9792 10.2533 15.8467 10.3858ZM11.3337 17.1551C11.1787 17.0001 11.1787 16.752 11.3337 16.5969L15.6747 12.2551C15.8298 12.1 16.0778 12.1 16.2329 12.2551C16.3879 12.4101 16.3879 12.6582 16.2329 12.8133L11.8918 17.1551C11.7368 17.3102 11.4888 17.3102 11.3337 17.1551ZM10.3161 19.5262H11.6692V20.5496L9.85101 20.8682L8.97435 19.9914L9.29288 18.1729H10.3161V19.5262Z" fill="white"/>
</g>
<defs>
<clipPath id="clip0_511_7098">
<rect width="14.4324" height="14.4351" fill="white" transform="translate(7.83524 7.57227)"/>
</clipPath>
</defs>
</svg>
