<svg width="155" height="144" viewBox="0 0 155 144" fill="none" xmlns="http://www.w3.org/2000/svg">
<path d="M46.8 0.599964L60 13.8C53.6 25 48 36.2 43.2 47.4C38.4 58.2 35.6 68.8 34.8 79.2L64.8 85.8V144H1.07288e-06V102C1.07288e-06 77.2 4.8 57.2 14.4 42C24.4 26.4 35.2 12.6 46.8 0.599964ZM136.8 0.599964L150 13.8C143.6 25 138 36.2 133.2 47.4C128.4 58.2 125.6 68.8 124.8 79.2L154.8 85.8V144H90V102C90 77.2 94.8 57.2 104.4 42C114.4 26.4 125.2 12.6 136.8 0.599964Z" fill="#4154f1" fill-opacity="0.53"/>
</svg>
