<svg width="14" height="15" viewBox="0 0 14 15" fill="none" xmlns="http://www.w3.org/2000/svg">
<path fill-rule="evenodd" clip-rule="evenodd" d="M0.292893 0.308518C0.683417 -0.0820059 1.31658 -0.0820059 1.70711 0.308518L7 5.60141L12.2929 0.308518C12.6834 -0.0820061 13.3166 -0.0820061 13.7071 0.308518C14.0976 0.699042 14.0976 1.33221 13.7071 1.72273L8.41421 7.01562L13.7071 12.3085C14.0976 12.699 14.0976 13.3322 13.7071 13.7227C13.3166 14.1133 12.6834 14.1133 12.2929 13.7227L7 8.42984L1.70711 13.7227C1.31658 14.1133 0.683418 14.1133 0.292893 13.7227C-0.0976309 13.3322 -0.0976309 12.699 0.292893 12.3085L5.58579 7.01562L0.292893 1.72273C-0.0976311 1.33221 -0.0976311 0.699043 0.292893 0.308518Z" fill="#838181"/>
</svg>
