<svg width="20" height="21" viewBox="0 0 20 21" fill="none" xmlns="http://www.w3.org/2000/svg">
<path d="M6.875 18C7.56536 18 8.125 17.4404 8.125 16.75C8.125 16.0596 7.56536 15.5 6.875 15.5C6.18464 15.5 5.625 16.0596 5.625 16.75C5.625 17.4404 6.18464 18 6.875 18Z" fill="#222222"/>
<path d="M15.625 18C16.3154 18 16.875 17.4404 16.875 16.75C16.875 16.0596 16.3154 15.5 15.625 15.5C14.9346 15.5 14.375 16.0596 14.375 16.75C14.375 17.4404 14.9346 18 15.625 18Z" fill="#222222"/>
<path d="M17.8437 5.21797C17.7559 5.11057 17.6453 5.02406 17.5199 4.96474C17.3945 4.90542 17.2575 4.87476 17.1187 4.875H5.23008L4.99062 3.51641C4.96509 3.37169 4.88938 3.2406 4.7768 3.14616C4.66421 3.05172 4.52195 2.99997 4.375 3H1.875C1.70924 3 1.55027 3.06585 1.43306 3.18306C1.31585 3.30027 1.25 3.45924 1.25 3.625C1.25 3.79076 1.31585 3.94973 1.43306 4.06694C1.55027 4.18415 1.70924 4.25 1.875 4.25H3.85078L5.63437 14.3586C5.65991 14.5033 5.73562 14.6344 5.8482 14.7288C5.96079 14.8233 6.10305 14.875 6.25 14.875H16.25C16.4158 14.875 16.5747 14.8092 16.6919 14.6919C16.8092 14.5747 16.875 14.4158 16.875 14.25C16.875 14.0842 16.8092 13.9253 16.6919 13.8081C16.5747 13.6908 16.4158 13.625 16.25 13.625H6.77422L6.55391 12.375H15.9937C16.2105 12.3747 16.4205 12.2996 16.5882 12.1623C16.7559 12.025 16.871 11.8339 16.9141 11.6215L18.0391 5.99648C18.0662 5.86035 18.0627 5.7199 18.0289 5.58527C17.9952 5.45064 17.9319 5.32518 17.8437 5.21797Z" fill="#222222"/>
</svg>
