<svg width="20" height="21" viewBox="0 0 20 21" fill="none" xmlns="http://www.w3.org/2000/svg">
<path d="M10.0002 20.5C15.5231 20.5 20.0002 16.0228 20.0002 10.5C20.0002 4.97715 15.5231 0.5 10.0002 0.5C4.4774 0.5 0.000244141 4.97715 0.000244141 10.5C0.000244141 16.0228 4.4774 20.5 10.0002 20.5Z" fill="white"/>
<path d="M9.98915 0.5C8.01353 0.5 6.08228 1.08584 4.43961 2.18343C2.79695 3.28103 1.51664 4.84108 0.760608 6.66631C0.00457219 8.49155 -0.193241 10.5 0.192183 12.4376C0.577606 14.3753 1.52896 16.1551 2.92593 17.5521C4.3229 18.9491 6.10275 19.9004 8.04041 20.2859C9.97807 20.6713 11.9865 20.4735 13.8117 19.7174C15.637 18.9614 17.197 17.6811 18.2946 16.0384C19.3922 14.3958 19.978 12.4645 19.978 10.4889C19.978 7.83968 18.9256 5.29896 17.0524 3.42568C15.1791 1.5524 12.6384 0.5 9.98915 0.5ZM14.6839 7.66981L9.75607 14.5067C9.60929 14.7048 9.39507 14.8424 9.15382 14.8935C8.91257 14.9447 8.66095 14.9057 8.44642 14.7841L5.61623 13.1304C5.38663 12.9921 5.22139 12.7682 5.15687 12.508C5.09235 12.2478 5.13382 11.9727 5.27217 11.7431C5.41052 11.5135 5.63441 11.3482 5.89458 11.2837C6.15476 11.2192 6.42992 11.2607 6.65952 11.399L8.66839 12.5977L13.1079 6.50444C13.2727 6.33937 13.49 6.23717 13.7222 6.21553C13.9544 6.1939 14.1869 6.25421 14.3793 6.386C14.5717 6.5178 14.712 6.71277 14.7757 6.93711C14.8395 7.16146 14.8227 7.40104 14.7283 7.61432L14.6839 7.66981Z" fill="#4154f1"/>
</svg>
