<svg width="22" height="20" viewBox="0 0 22 20" fill="none" xmlns="http://www.w3.org/2000/svg">
<path d="M18.9232 11.1298L19.9501 10.2501H18.5979L7.62493 10.2501C7.55863 10.2501 7.49504 10.2238 7.44815 10.1769C7.40127 10.13 7.37493 10.0664 7.37493 10.0001C7.37493 9.93382 7.40127 9.87023 7.44815 9.82335C7.49504 9.77646 7.55863 9.75013 7.62493 9.75013L18.5969 9.75013H19.9486L18.9223 8.8705L16.9623 7.1905L16.9621 7.19031C16.9117 7.14713 16.8804 7.08567 16.8753 7.01947C16.8702 6.95327 16.8916 6.88774 16.9347 6.8373C16.9779 6.78686 17.0394 6.75564 17.1056 6.75051C17.1718 6.74538 17.2373 6.76674 17.2877 6.8099C17.2877 6.80991 17.2877 6.80993 17.2878 6.80994L20.7875 9.80975L20.788 9.81013C20.8154 9.8336 20.8374 9.86273 20.8526 9.89553C20.8677 9.92833 20.8755 9.96401 20.8755 10.0001C20.8755 10.0362 20.8677 10.0719 20.8526 10.1047C20.8374 10.1375 20.8154 10.1667 20.788 10.1901L20.7875 10.1905L17.2878 13.1903C17.2877 13.1904 17.2876 13.1904 17.2875 13.1905C17.2626 13.2118 17.2338 13.228 17.2026 13.2381C17.1713 13.2483 17.1384 13.2523 17.1056 13.2497C17.0728 13.2472 17.0408 13.2382 17.0115 13.2233C16.9822 13.2084 16.9561 13.1879 16.9347 13.1629C16.9134 13.138 16.8971 13.109 16.8869 13.0778C16.8767 13.0465 16.8728 13.0136 16.8753 12.9808C16.8779 12.948 16.8868 12.916 16.9017 12.8867C16.9166 12.8574 16.9371 12.8313 16.9621 12.8099L16.9622 12.8098L18.9232 11.1298Z" stroke="#222222"/>
<path d="M13.181 12.419L12.9033 12.8348C12.8724 12.8142 12.813 12.7856 12.6456 12.7685C12.4698 12.7506 12.2364 12.75 11.875 12.75H7.625C6.89565 12.75 6.19618 12.4603 5.68046 11.9445C5.16473 11.4288 4.875 10.7293 4.875 10C4.875 9.27065 5.16473 8.57118 5.68046 8.05546C6.19618 7.53973 6.89565 7.25 7.625 7.25H11.875C12.2364 7.25 12.4699 7.2494 12.6459 7.23155C12.812 7.21472 12.8722 7.18664 12.9035 7.16608C12.9574 7.12965 13.0038 7.08304 13.0398 7.02885L13.0402 7.02827C13.0608 6.9974 13.0894 6.93799 13.1065 6.77064C13.1244 6.59477 13.125 6.36142 13.125 6C13.125 4.57186 13.1239 3.55082 13.0196 2.77489C12.9172 2.01331 12.7236 1.5633 12.3926 1.23275L12.3922 1.23235C12.0617 0.901384 11.6119 0.707823 10.8506 0.605412C10.0749 0.501062 9.05415 0.5 7.626 0.5H6.626C5.19685 0.5 4.17582 0.501062 3.40003 0.605412C2.63871 0.707813 2.18874 0.901371 1.85755 1.23255L1.85735 1.23275C1.52642 1.5633 1.33284 2.01331 1.23041 2.77489C1.12606 3.55082 1.125 4.57186 1.125 6L1.125 14C1.125 15.4281 1.12606 16.4492 1.23041 17.2251C1.33284 17.9867 1.52642 18.4367 1.85735 18.7672L1.85755 18.7674C2.18871 19.0986 2.6389 19.2922 3.40028 19.3946C4.17607 19.4989 5.19686 19.5 6.625 19.5H7.625C9.05365 19.5 10.0747 19.4989 10.8505 19.3946C11.6119 19.2922 12.0617 19.0986 12.3922 18.7676L12.3926 18.7672C12.7236 18.4367 12.9172 17.9867 13.0196 17.2251C13.1239 16.4492 13.125 15.4281 13.125 14C13.125 13.6386 13.1244 13.4052 13.1065 13.2294C13.0894 13.062 13.0608 13.0026 13.0402 12.9717L13.456 12.694L13.0404 12.9721C13.0041 12.9177 12.9573 12.8709 12.9029 12.8346L13.181 12.419ZM13.181 12.419C12.928 12.25 12.577 12.25 11.875 12.25H11.875H7.625C7.02826 12.25 6.45597 12.0129 6.03401 11.591C5.61205 11.169 5.375 10.5967 5.375 10C5.375 9.40326 5.61205 8.83097 6.03401 8.40901C6.45597 7.98705 7.02826 7.75 7.625 7.75H11.875C12.577 7.75 12.928 7.75 13.181 7.582V12.419Z" stroke="#222222"/>
</svg>
