<svg width="24" height="24" viewBox="0 0 24 24" fill="none" xmlns="http://www.w3.org/2000/svg">
<path d="M3.5 8.7V8.42028L3.26163 8.27391C2.80981 7.99648 2.5 7.52374 2.5 7.01V4C2.5 3.19198 3.26003 2.5 4 2.5H20C20.74 2.5 21.5 3.19198 21.5 4V7.01C21.5 7.52374 21.1902 7.99648 20.7384 8.27391L20.5 8.42028V8.7V20C20.5 20.3797 20.3083 20.7551 19.9959 21.0474C19.6789 21.3439 19.2958 21.5 19 21.5H5C4.70424 21.5 4.32111 21.3439 4.00408 21.0474C3.6917 20.7551 3.5 20.3797 3.5 20V8.7ZM20 7.5H20.5V7V4V3.5H20H4H3.5V4V7V7.5H4H20ZM10 14.5H14C14.8261 14.5 15.5 13.8261 15.5 13C15.5 12.1739 14.8261 11.5 14 11.5H10C9.17386 11.5 8.5 12.1739 8.5 13C8.5 13.8261 9.17386 14.5 10 14.5Z" stroke="#222222"/>
</svg>
