<svg width="20" height="18" viewBox="0 0 20 18" fill="none" xmlns="http://www.w3.org/2000/svg">
<path d="M13.4999 9.99924C13.4998 9.58995 13.3555 9.22331 13.0649 8.93366C12.7751 8.64488 12.4094 8.5008 12.0011 8.49983H11.9999L7.99994 10.9998V11.4998H8.0007C8.00084 11.4998 8.00098 11.4998 8.00112 11.4998L11.9999 11.4998C12.4095 11.4998 12.7763 11.3556 13.0665 11.0654C13.3566 10.7752 13.5008 10.4086 13.4999 9.99924ZM13.4999 9.99924C13.4999 9.99944 13.4999 9.99964 13.4999 9.99983H12.9999L13.4999 9.99865C13.4999 9.99885 13.4999 9.99905 13.4999 9.99924ZM2.49994 5.09983V4.98977L2.45372 4.88987L0.903725 1.53987L0.903727 1.53987L0.903035 1.53839C0.844263 1.41245 0.840092 1.2996 0.891306 1.16713C0.944935 1.02841 1.02869 0.939499 1.16039 0.878387L1.16039 0.878388L1.16139 0.877924C1.29298 0.816514 1.41119 0.811192 1.54539 0.858923C1.67745 0.905891 1.76192 0.982603 1.82148 1.11048C1.82152 1.11057 1.82156 1.11066 1.8216 1.11074L3.74636 5.26023L3.8807 5.54983H4.19994H15.7999H16.1192L16.2535 5.26023L18.178 1.11128C18.1781 1.11105 18.1782 1.11082 18.1784 1.1106C18.2401 0.978681 18.3295 0.894815 18.4682 0.841195C18.5881 0.794857 18.6903 0.799521 18.8142 0.865748L18.8262 0.872167L18.8385 0.877924C18.9708 0.939668 19.0549 1.0292 19.1086 1.16813C19.1599 1.30075 19.1555 1.41306 19.0971 1.53792L19.0962 1.53987L17.5462 4.88987L17.4999 4.98977V5.09983V15.9998C17.4999 16.4163 17.3576 16.7606 17.0591 17.0596C16.7611 17.3581 16.4174 17.5003 16.0005 17.4998H15.9999H3.99994C3.58348 17.4998 3.23972 17.3575 2.9415 17.0593C2.64334 16.7611 2.50053 16.417 2.49994 15.9996V5.09983Z" stroke="#222222"/>
</svg>
