<svg width="18" height="18" viewBox="0 0 18 18" fill="none" xmlns="http://www.w3.org/2000/svg">
<path d="M7 9.5H1C0.726142 9.5 0.5 9.27386 0.5 9V1C0.5 0.726142 0.726142 0.5 1 0.5H7C7.27386 0.5 7.5 0.726142 7.5 1V9C7.5 9.27386 7.27386 9.5 7 9.5ZM7 17.5H1C0.726142 17.5 0.5 17.2739 0.5 17V13C0.5 12.7261 0.726142 12.5 1 12.5H7C7.27386 12.5 7.5 12.7261 7.5 13V17C7.5 17.2739 7.27386 17.5 7 17.5ZM17 17.5H11C10.7261 17.5 10.5 17.2739 10.5 17V9C10.5 8.72614 10.7261 8.5 11 8.5H17C17.2739 8.5 17.5 8.72614 17.5 9V17C17.5 17.2739 17.2739 17.5 17 17.5ZM10.5 5V1C10.5 0.726142 10.7261 0.5 11 0.5H17C17.2739 0.5 17.5 0.726142 17.5 1V5C17.5 5.27386 17.2739 5.5 17 5.5H11C10.7261 5.5 10.5 5.27386 10.5 5Z" stroke="#222222"/>
</svg>
