<svg width="24" height="25" viewBox="0 0 24 25" fill="none" xmlns="http://www.w3.org/2000/svg">
<path d="M11.2288 24.9977C11.702 24.9868 12.156 24.8089 12.5107 24.4955C12.8653 24.1821 13.0977 23.7534 13.1667 23.2852H9.21582C9.28678 23.7661 9.53003 24.2049 9.90032 24.5199C10.2706 24.8349 10.7427 25.0047 11.2288 24.9977Z" fill="#4154f1"/>
<path d="M22.3833 20.3777L22.1279 20.1524C21.4034 19.5069 20.7693 18.7666 20.2426 17.9516C19.6674 16.8268 19.3227 15.5985 19.2286 14.3387V10.6282C19.2255 10.1775 19.1853 9.72782 19.1084 9.28372C17.8361 9.02221 16.6933 8.32906 15.8734 7.32164C15.0535 6.31421 14.6069 5.0544 14.6092 3.7555C14.6092 3.59776 14.6092 3.44003 14.6092 3.28229C13.825 2.89636 12.9824 2.64258 12.1155 2.53118V1.58477C12.1155 1.31883 12.0099 1.06378 11.8218 0.875727C11.6338 0.687677 11.3787 0.582031 11.1128 0.582031C10.8468 0.582031 10.5918 0.687677 10.4037 0.875727C10.2157 1.06378 10.11 1.31883 10.11 1.58477V2.56873C8.16893 2.84256 6.39244 3.80939 5.10851 5.29073C3.82459 6.77207 3.11994 8.6679 3.12465 10.6282V14.3387C3.03057 15.5985 2.68583 16.8268 2.11064 17.9516C1.59303 18.7646 0.969087 19.5047 0.25538 20.1524L0 20.3777V22.4959H22.3833V20.3777Z" fill="#4154f1"/>
<path d="M20.2444 7.51117C22.3185 7.51117 23.9999 5.82974 23.9999 3.75559C23.9999 1.68143 22.3185 0 20.2444 0C18.1702 0 16.4888 1.68143 16.4888 3.75559C16.4888 5.82974 18.1702 7.51117 20.2444 7.51117Z" fill="#FF4B4A"/>
</svg>
