<svg width="20" height="20" viewBox="0 0 20 20" fill="none" xmlns="http://www.w3.org/2000/svg">
<path d="M10 0.5C11.1935 0.5 12.3381 0.974106 13.182 1.81802C14.0259 2.66193 14.5 3.80653 14.5 5C14.5 6.19347 14.0259 7.33807 13.182 8.18198C12.3381 9.02589 11.1935 9.5 10 9.5C8.80653 9.5 7.66193 9.02589 6.81802 8.18198C5.97411 7.33807 5.5 6.19347 5.5 5C5.5 3.80653 5.97411 2.66193 6.81802 1.81802C7.66193 0.974106 8.80653 0.5 10 0.5ZM10 13C12.7018 13 15.122 13.5481 16.8483 14.4113C18.6043 15.2893 19.5 16.41 19.5 17.5V19.5H0.5V17.5C0.5 16.41 1.39569 15.2893 3.15173 14.4113C4.878 13.5481 7.29823 13 10 13Z" stroke="#222222"/>
</svg>
