<svg width="24" height="24" viewBox="0 0 24 24" fill="none" xmlns="http://www.w3.org/2000/svg">
<path d="M3 17.2505V21.0005H6.75L17.81 9.94049L14.06 6.19049L3 17.2505ZM20.71 7.04049C20.8027 6.94798 20.8762 6.83809 20.9264 6.71712C20.9766 6.59614 21.0024 6.46646 21.0024 6.33549C21.0024 6.20452 20.9766 6.07484 20.9264 5.95387C20.8762 5.83289 20.8027 5.723 20.71 5.63049L18.37 3.29049C18.2775 3.19779 18.1676 3.12424 18.0466 3.07406C17.9257 3.02388 17.796 2.99805 17.665 2.99805C17.534 2.99805 17.4043 3.02388 17.2834 3.07406C17.1624 3.12424 17.0525 3.19779 16.96 3.29049L15.13 5.12049L18.88 8.87049L20.71 7.04049Z" fill="#838181" fill-opacity="0.3"/>
</svg>
