<svg width="20" height="20" viewBox="0 0 20 20" fill="none" xmlns="http://www.w3.org/2000/svg">
<path d="M10.8565 1.66602C11.794 1.66852 12.2698 1.67352 12.6807 1.68518L12.8423 1.69102C13.029 1.69768 13.2132 1.70602 13.4357 1.71602C14.3223 1.75768 14.9273 1.89768 15.4582 2.10352C16.0082 2.31518 16.4715 2.60185 16.9348 3.06435C17.3586 3.48093 17.6865 3.98484 17.8957 4.54102C18.1015 5.07185 18.2415 5.67685 18.2832 6.56435C18.2932 6.78602 18.3015 6.97018 18.3082 7.15768L18.3132 7.31935C18.3257 7.72935 18.3307 8.20518 18.3323 9.14268L18.3332 9.76435V10.856C18.3352 11.4639 18.3288 12.0717 18.314 12.6793L18.309 12.841C18.3023 13.0285 18.294 13.2127 18.284 13.4343C18.2423 14.3218 18.1007 14.926 17.8957 15.4577C17.6871 16.0142 17.3591 16.5182 16.9348 16.9344C16.5181 17.3579 16.0143 17.6858 15.4582 17.8952C14.9273 18.101 14.3223 18.241 13.4357 18.2827C13.2379 18.292 13.0401 18.3003 12.8423 18.3077L12.6807 18.3127C12.2698 18.3244 11.794 18.3302 10.8565 18.3319L10.2348 18.3327H9.144C8.53588 18.3348 7.92777 18.3284 7.31983 18.3135L7.15816 18.3085C6.96034 18.301 6.76256 18.2924 6.56483 18.2827C5.67816 18.241 5.07316 18.101 4.5415 17.8952C3.98539 17.6863 3.48168 17.3584 3.06566 16.9344C2.64153 16.5179 2.31335 16.014 2.104 15.4577C1.89816 14.9268 1.75816 14.3218 1.7165 13.4343C1.70721 13.2366 1.69888 13.0388 1.6915 12.841L1.68733 12.6793C1.67197 12.0717 1.66503 11.4639 1.6665 10.856V9.14268C1.66417 8.53485 1.67028 7.92701 1.68483 7.31935L1.69066 7.15768C1.69733 6.97018 1.70566 6.78602 1.71566 6.56435C1.75733 5.67685 1.89733 5.07268 2.10316 4.54102C2.31242 3.98427 2.64126 3.4802 3.0665 3.06435C3.48241 2.64058 3.98578 2.31267 4.5415 2.10352C5.07316 1.89768 5.67733 1.75768 6.56483 1.71602C6.7865 1.70602 6.9715 1.69768 7.15816 1.69102L7.31983 1.68602C7.92749 1.67121 8.53533 1.66482 9.14316 1.66685L10.8565 1.66602ZM9.99983 5.83268C8.89476 5.83268 7.83495 6.27167 7.05355 7.05307C6.27215 7.83447 5.83316 8.89428 5.83316 9.99935C5.83316 11.1044 6.27215 12.1642 7.05355 12.9456C7.83495 13.727 8.89476 14.166 9.99983 14.166C11.1049 14.166 12.1647 13.727 12.9461 12.9456C13.7275 12.1642 14.1665 11.1044 14.1665 9.99935C14.1665 8.89428 13.7275 7.83447 12.9461 7.05307C12.1647 6.27167 11.1049 5.83268 9.99983 5.83268ZM9.99983 7.49935C10.3281 7.49929 10.6532 7.56391 10.9566 7.68949C11.2599 7.81508 11.5355 7.99918 11.7677 8.23129C11.9999 8.4634 12.1841 8.73896 12.3098 9.04226C12.4355 9.34555 12.5002 9.67063 12.5002 9.99893C12.5003 10.3272 12.4357 10.6523 12.3101 10.9557C12.1845 11.259 12.0004 11.5346 11.7683 11.7668C11.5362 11.999 11.2606 12.1832 10.9573 12.3089C10.654 12.4346 10.329 12.4993 10.0007 12.4993C9.33762 12.4993 8.70174 12.236 8.2329 11.7671C7.76406 11.2983 7.50066 10.6624 7.50066 9.99935C7.50066 9.33631 7.76406 8.70042 8.2329 8.23158C8.70174 7.76274 9.33762 7.49935 10.0007 7.49935M14.3757 4.58268C14.0994 4.58268 13.8344 4.69243 13.6391 4.88778C13.4437 5.08313 13.334 5.34808 13.334 5.62435C13.334 5.90062 13.4437 6.16557 13.6391 6.36092C13.8344 6.55627 14.0994 6.66602 14.3757 6.66602C14.6519 6.66602 14.9169 6.55627 15.1122 6.36092C15.3076 6.16557 15.4173 5.90062 15.4173 5.62435C15.4173 5.34808 15.3076 5.08313 15.1122 4.88778C14.9169 4.69243 14.6519 4.58268 14.3757 4.58268Z" fill="#838181"/>
</svg>
