<svg width="76" height="76" viewBox="0 0 76 76" fill="none" xmlns="http://www.w3.org/2000/svg">
<rect x="0.5" y="0.5" width="75" height="75" rx="37.5" stroke="#D9D9D8"/>
<g clip-path="url(#clip0_42_1284)">
<path d="M51.4999 32.9234V24.275C51.5012 23.8615 51.4208 23.4518 51.2634 23.0695C51.1059 22.6871 50.8745 22.3396 50.5824 22.047C50.2903 21.7543 49.9433 21.5222 49.5613 21.364C49.1792 21.2057 48.7697 21.1245 48.3562 21.125H39.7127C39.1459 21.1262 38.6025 21.3508 38.2003 21.7501L20.9203 39.0252C20.3309 39.6164 20 40.4172 20 41.252C20 42.0868 20.3309 42.8875 20.9203 43.4788L29.1468 51.7053C29.7379 52.2948 30.5385 52.6258 31.3733 52.6258C32.208 52.6258 33.0087 52.2948 33.5997 51.7053L50.8748 34.4359C51.2743 34.0337 51.4989 33.4902 51.4999 32.9234ZM44.7499 30.125C44.3049 30.125 43.8699 29.993 43.4999 29.7458C43.1298 29.4986 42.8415 29.1472 42.6712 28.736C42.5009 28.3249 42.4563 27.8725 42.5431 27.436C42.6299 26.9996 42.8442 26.5987 43.1589 26.284C43.4736 25.9693 43.8745 25.7551 44.3109 25.6682C44.7474 25.5814 45.1998 25.626 45.6109 25.7963C46.0221 25.9666 46.3735 26.255 46.6207 26.625C46.8679 26.995 46.9999 27.43 46.9999 27.875C46.9999 28.4717 46.7628 29.044 46.3409 29.466C45.9189 29.8879 45.3466 30.125 44.7499 30.125Z" fill="#4154f1"/>
<path d="M54.8749 24.5C54.5765 24.5 54.2903 24.6185 54.0794 24.8295C53.8684 25.0405 53.7499 25.3266 53.7499 25.625V34.5807L35.3765 52.9548C35.2676 53.0582 35.1806 53.1824 35.1205 53.32C35.0603 53.4576 35.0284 53.6058 35.0265 53.756C35.0245 53.9061 35.0527 54.0551 35.1093 54.1942C35.1658 54.3333 35.2497 54.4597 35.3559 54.5659C35.4621 54.672 35.5884 54.7559 35.7275 54.8125C35.8666 54.869 36.0156 54.8972 36.1658 54.8953C36.3159 54.8934 36.4642 54.8614 36.6018 54.8013C36.7394 54.7412 36.8635 54.6541 36.967 54.5452L55.3888 36.1234C55.5848 35.9265 55.7397 35.6927 55.8446 35.4355C55.9495 35.1782 56.0023 34.9028 55.9999 34.625V25.625C55.9999 25.3266 55.8813 25.0405 55.6704 24.8295C55.4594 24.6185 55.1732 24.5 54.8749 24.5Z" fill="#4154f1"/>
</g>
<defs>
<clipPath id="clip0_42_1284">
<rect width="36" height="36" fill="white" transform="translate(20 20)"/>
</clipPath>
</defs>
</svg>
