<svg width="22" height="20" viewBox="0 0 22 20" fill="none" xmlns="http://www.w3.org/2000/svg">
<path fill-rule="evenodd" clip-rule="evenodd" d="M4.624 2.42401C2.965 3.18201 1.75 4.98601 1.75 7.13701C1.75 9.33401 2.65 11.028 3.938 12.48C5.001 13.676 6.287 14.668 7.541 15.634C7.839 15.864 8.135 16.093 8.426 16.322C8.952 16.737 9.421 17.1 9.874 17.365C10.326 17.629 10.69 17.75 11 17.75C11.31 17.75 11.674 17.63 12.126 17.365C12.579 17.1 13.048 16.737 13.574 16.322C13.864 16.092 14.161 15.864 14.459 15.635C15.713 14.667 16.999 13.676 18.062 12.48C19.351 11.028 20.25 9.33401 20.25 7.13701C20.25 4.98701 19.035 3.18201 17.376 2.42401C15.764 1.68701 13.598 1.88201 11.54 4.02101C11.47 4.09359 11.3862 4.15133 11.2934 4.19077C11.2006 4.2302 11.1008 4.25053 11 4.25053C10.8992 4.25053 10.7994 4.2302 10.7066 4.19077C10.6138 4.15133 10.53 4.09359 10.46 4.02101C8.402 1.88201 6.236 1.68701 4.624 2.42401ZM11 2.46001C8.688 0.390008 6.099 0.100008 4 1.05901C1.786 2.07401 0.25 4.42601 0.25 7.13801C0.25 9.80301 1.36 11.837 2.817 13.477C3.983 14.79 5.41 15.889 6.671 16.859C6.957 17.079 7.234 17.293 7.497 17.501C8.01 17.905 8.56 18.335 9.117 18.661C9.674 18.986 10.31 19.251 11 19.251C11.69 19.251 12.326 18.986 12.883 18.661C13.441 18.335 13.99 17.905 14.503 17.501C14.7769 17.2852 15.0522 17.0712 15.329 16.859C16.589 15.889 18.017 14.789 19.183 13.477C20.64 11.837 21.75 9.80301 21.75 7.13801C21.75 4.42601 20.215 2.07401 18 1.06101C15.901 0.101008 13.312 0.391008 11 2.46001Z" fill="#4154f1"/>
</svg>
