<svg width="76" height="76" viewBox="0 0 76 76" fill="none" xmlns="http://www.w3.org/2000/svg">
<rect x="0.5" y="0.5" width="75" height="75" rx="37.5" stroke="#D9D9D8"/>
<path d="M38 45.5C38.7956 45.5 39.5587 45.1839 40.1213 44.6213C40.6839 44.0587 41 43.2956 41 42.5C41 41.7044 40.6839 40.9413 40.1213 40.3787C39.5587 39.8161 38.7956 39.5 38 39.5C37.2044 39.5 36.4413 39.8161 35.8787 40.3787C35.3161 40.9413 35 41.7044 35 42.5C35 43.2956 35.3161 44.0587 35.8787 44.6213C36.4413 45.1839 37.2044 45.5 38 45.5ZM47 32C47.7956 32 48.5587 32.3161 49.1213 32.8787C49.6839 33.4413 50 34.2044 50 35V50C50 50.7956 49.6839 51.5587 49.1213 52.1213C48.5587 52.6839 47.7956 53 47 53H29C28.2044 53 27.4413 52.6839 26.8787 52.1213C26.3161 51.5587 26 50.7956 26 50V35C26 34.2044 26.3161 33.4413 26.8787 32.8787C27.4413 32.3161 28.2044 32 29 32H30.5V29C30.5 27.0109 31.2902 25.1032 32.6967 23.6967C34.1032 22.2902 36.0109 21.5 38 21.5C38.9849 21.5 39.9602 21.694 40.8701 22.0709C41.7801 22.4478 42.6069 23.0003 43.3033 23.6967C43.9997 24.3931 44.5522 25.2199 44.9291 26.1299C45.306 27.0398 45.5 28.0151 45.5 29V32H47ZM38 24.5C36.8065 24.5 35.6619 24.9741 34.818 25.818C33.9741 26.6619 33.5 27.8065 33.5 29V32H42.5V29C42.5 27.8065 42.0259 26.6619 41.182 25.818C40.3381 24.9741 39.1935 24.5 38 24.5Z" fill="#4154f1"/>
</svg>
