<svg width="76" height="76" viewBox="0 0 76 76" fill="none" xmlns="http://www.w3.org/2000/svg">
<rect x="0.5" y="0.5" width="75" height="75" rx="37.5" stroke="#D9D9D8"/>
<g clip-path="url(#clip0_42_1292)">
<path fill-rule="evenodd" clip-rule="evenodd" d="M35.879 23.1507C36.4099 22.6204 37.1204 22.3084 37.8701 22.2762C38.6199 22.244 39.3545 22.4939 39.929 22.9767L40.121 23.1522L42.971 26.0007H47C47.7566 26.0009 48.4852 26.2869 49.0398 26.8015C49.5945 27.3161 49.9342 28.0213 49.991 28.7757L50 29.0007V33.0297L52.85 35.8797C53.3807 36.4108 53.693 37.1215 53.7252 37.8716C53.7574 38.6217 53.5072 39.3566 53.024 39.9312L52.8485 40.1217L49.9985 42.9717V47.0007C49.9987 47.7576 49.7128 48.4866 49.1982 49.0416C48.6836 49.5965 47.9782 49.9365 47.2235 49.9932L47 50.0007H42.9725L40.1225 52.8507C39.5914 53.3814 38.8806 53.6937 38.1306 53.726C37.3805 53.7582 36.6456 53.508 36.071 53.0247L35.8805 52.8507L33.0305 50.0007H29C28.2431 50.001 27.5141 49.7151 26.9591 49.2005C26.4042 48.6859 26.0642 47.9805 26.0075 47.2257L26 47.0007V42.9717L23.15 40.1217C22.6192 39.5907 22.307 38.8799 22.2747 38.1298C22.2425 37.3797 22.4927 36.6448 22.976 36.0702L23.15 35.8797L26 33.0297V29.0007C26.0001 28.2441 26.2861 27.5155 26.8007 26.9609C27.3153 26.4062 28.0205 26.0665 28.775 26.0097L29 26.0007H33.029L35.879 23.1507ZM42.6185 33.4752L36.2525 39.8412L33.6005 37.1892C33.319 36.908 32.9373 36.75 32.5394 36.7502C32.1415 36.7503 31.76 36.9085 31.4787 37.19C31.1974 37.4714 31.0395 37.8531 31.0397 38.251C31.0398 38.6489 31.198 39.0305 31.4795 39.3117L35.0855 42.9177C35.2387 43.071 35.4206 43.1926 35.6208 43.2756C35.8211 43.3586 36.0357 43.4013 36.2525 43.4013C36.4692 43.4013 36.6838 43.3586 36.8841 43.2756C37.0843 43.1926 37.2662 43.071 37.4195 42.9177L44.7395 35.5962C45.0127 35.3133 45.1639 34.9344 45.1605 34.5411C45.157 34.1478 44.9993 33.7716 44.7212 33.4935C44.4431 33.2154 44.0669 33.0576 43.6736 33.0542C43.2803 33.0508 42.9014 33.202 42.6185 33.4752Z" fill="#4154f1"/>
</g>
<defs>
<clipPath id="clip0_42_1292">
<rect width="36" height="36" fill="white" transform="translate(20 20)"/>
</clipPath>
</defs>
</svg>
