<svg width="76" height="76" viewBox="0 0 76 76" fill="none" xmlns="http://www.w3.org/2000/svg">
<rect x="0.5" y="0.5" width="75" height="75" rx="37.5" stroke="#D9D9D8"/>
<g clip-path="url(#clip0_42_1270)">
<path d="M55.1 43.3996H54.2V37.319C54.2 36.6046 53.9131 35.9184 53.4069 35.4121L47.7875 29.7927C47.2812 29.2865 46.595 28.9996 45.8806 28.9996H43.4V26.2996C43.4 24.809 42.1906 23.5996 40.7 23.5996H26.3C24.8094 23.5996 23.6 24.809 23.6 26.2996V28.9996H20.45C20.2025 28.9996 20 29.2021 20 29.4496V30.3496C20 30.5971 20.2025 30.7996 20.45 30.7996H35.75C35.9975 30.7996 36.2 31.0021 36.2 31.2496V32.1496C36.2 32.3971 35.9975 32.5996 35.75 32.5996H22.25C22.0025 32.5996 21.8 32.8021 21.8 33.0496V33.9496C21.8 34.1971 22.0025 34.3996 22.25 34.3996H33.95C34.1975 34.3996 34.4 34.6021 34.4 34.8496V35.7496C34.4 35.9971 34.1975 36.1996 33.95 36.1996H20.45C20.2025 36.1996 20 36.4021 20 36.6496V37.5496C20 37.7971 20.2025 37.9996 20.45 37.9996H32.15C32.3975 37.9996 32.6 38.2021 32.6 38.4496V39.3496C32.6 39.5971 32.3975 39.7996 32.15 39.7996H23.6V46.9996C23.6 49.9809 26.0187 52.3996 29 52.3996C31.9812 52.3996 34.4 49.9809 34.4 46.9996H41.6C41.6 49.9809 44.0187 52.3996 47 52.3996C49.9812 52.3996 52.4 49.9809 52.4 46.9996H55.1C55.595 46.9996 56 46.5946 56 46.0996V44.2996C56 43.8046 55.595 43.3996 55.1 43.3996ZM29 49.6996C27.5094 49.6996 26.3 48.4902 26.3 46.9996C26.3 45.509 27.5094 44.2996 29 44.2996C30.4906 44.2996 31.7 45.509 31.7 46.9996C31.7 48.4902 30.4906 49.6996 29 49.6996ZM47 49.6996C45.5094 49.6996 44.3 48.4902 44.3 46.9996C44.3 45.509 45.5094 44.2996 47 44.2996C48.4906 44.2996 49.7 45.509 49.7 46.9996C49.7 48.4902 48.4906 49.6996 47 49.6996ZM51.5 37.9996H43.4V31.6996H45.8806L51.5 37.319V37.9996Z" fill="#4154f1"/>
</g>
<defs>
<clipPath id="clip0_42_1270">
<rect width="36" height="28.8" fill="white" transform="translate(20 23.5996)"/>
</clipPath>
</defs>
</svg>
