<svg width="19" height="19" viewBox="0 0 19 19" fill="none" xmlns="http://www.w3.org/2000/svg">
<path d="M17.013 15.5645L13.7052 12.2566C14.5016 11.1965 14.9315 9.90598 14.93 8.58C14.93 5.19305 12.1745 2.4375 8.78752 2.4375C5.40057 2.4375 2.64502 5.19305 2.64502 8.58C2.64502 11.967 5.40057 14.7225 8.78752 14.7225C10.1135 14.724 11.404 14.294 12.4642 13.4977L15.772 16.8055C15.9395 16.9552 16.1578 17.0351 16.3823 17.0288C16.6069 17.0225 16.8204 16.9305 16.9792 16.7717C17.1381 16.6129 17.23 16.3993 17.2363 16.1748C17.2426 15.9503 17.1627 15.7319 17.013 15.5645ZM4.40002 8.58C4.40002 7.71223 4.65734 6.86396 5.13945 6.14244C5.62155 5.42092 6.30679 4.85856 7.1085 4.52648C7.91021 4.1944 8.79239 4.10751 9.64348 4.2768C10.4946 4.4461 11.2763 4.86397 11.89 5.47757C12.5036 6.09117 12.9214 6.87295 13.0907 7.72404C13.26 8.57513 13.1731 9.45731 12.841 10.259C12.509 11.0607 11.9466 11.746 11.2251 12.2281C10.5036 12.7102 9.65529 12.9675 8.78752 12.9675C7.62431 12.9661 6.50914 12.5034 5.68663 11.6809C4.86412 10.8584 4.40142 9.74321 4.40002 8.58Z" fill="#838181"/>
</svg>
