<svg width="20" height="21" viewBox="0 0 20 21" fill="none" xmlns="http://www.w3.org/2000/svg">
<path d="M12.994 3.27266C12.2338 2.45195 11.1721 2 10.0002 2C8.8221 2 7.75686 2.44922 7.00022 3.26484C6.23538 4.08945 5.86272 5.21016 5.95022 6.42031C6.12366 8.80781 7.94046 10.75 10.0002 10.75C12.06 10.75 13.8737 8.8082 14.0498 6.42109C14.1385 5.22187 13.7635 4.10352 12.994 3.27266ZM16.8752 19.5H3.12522C2.94525 19.5023 2.76702 19.4645 2.60349 19.3893C2.43997 19.3141 2.29526 19.2034 2.17991 19.0652C1.926 18.7617 1.82366 18.3473 1.89944 17.9281C2.22913 16.0992 3.25804 14.5629 4.87522 13.4844C6.31194 12.527 8.13186 12 10.0002 12C11.8686 12 13.6885 12.5273 15.1252 13.4844C16.7424 14.5625 17.7713 16.0988 18.101 17.9277C18.1768 18.3469 18.0744 18.7613 17.8205 19.0648C17.7052 19.2031 17.5605 19.3139 17.397 19.3891C17.2335 19.4644 17.0552 19.5023 16.8752 19.5Z" fill="#222222"/>
</svg>
