<svg width="24" height="24" viewBox="0 0 24 24" fill="none" xmlns="http://www.w3.org/2000/svg">
<mask id="path-1-inside-1_511_7349" fill="white">
<path d="M21 19V20H3V19L5 17V11C5 7.9 7.03 5.17 10 4.29V4C10 3.46957 10.2107 2.96086 10.5858 2.58579C10.9609 2.21071 11.4696 2 12 2C12.5304 2 13.0391 2.21071 13.4142 2.58579C13.7893 2.96086 14 3.46957 14 4V4.29C16.97 5.17 19 7.9 19 11V17L21 19ZM14 21C14 21.5304 13.7893 22.0391 13.4142 22.4142C13.0391 22.7893 12.5304 23 12 23C11.4696 23 10.9609 22.7893 10.5858 22.4142C10.2107 22.0391 10 21.5304 10 21"/>
</mask>
<path d="M21 19H22V18.5858L21.7071 18.2929L21 19ZM21 20V21H22V20H21ZM3 20H2V21H3V20ZM3 19L2.29289 18.2929L2 18.5858V19H3ZM5 17L5.70711 17.7071L6 17.4142V17H5ZM10 4.29L10.2841 5.2488L11 5.03668V4.29H10ZM12 2V1V2ZM14 4.29H13V5.03668L13.7159 5.2488L14 4.29ZM19 17H18V17.4142L18.2929 17.7071L19 17ZM20 19V20H22V19H20ZM21 19H3V21H21V19ZM4 20V19H2V20H4ZM3.70711 19.7071L5.70711 17.7071L4.29289 16.2929L2.29289 18.2929L3.70711 19.7071ZM6 17V11H4V17H6ZM6 11C6 8.34076 7.74073 6.00239 10.2841 5.2488L9.71591 3.3312C6.31927 4.33761 4 7.45924 4 11H6ZM11 4.29V4H9V4.29H11ZM11 4C11 3.73478 11.1054 3.48043 11.2929 3.29289L9.87868 1.87868C9.31607 2.44129 9 3.20435 9 4H11ZM11.2929 3.29289C11.4804 3.10536 11.7348 3 12 3V1C11.2044 1 10.4413 1.31607 9.87868 1.87868L11.2929 3.29289ZM12 3C12.2652 3 12.5196 3.10536 12.7071 3.29289L14.1213 1.87868C13.5587 1.31607 12.7956 1 12 1V3ZM12.7071 3.29289C12.8946 3.48043 13 3.73478 13 4H15C15 3.20435 14.6839 2.44129 14.1213 1.87868L12.7071 3.29289ZM13 4V4.29H15V4H13ZM13.7159 5.2488C16.2593 6.00239 18 8.34076 18 11H20C20 7.45924 17.6807 4.33761 14.2841 3.3312L13.7159 5.2488ZM18 11V17H20V11H18ZM18.2929 17.7071L20.2929 19.7071L21.7071 18.2929L19.7071 16.2929L18.2929 17.7071ZM13 21C13 21.2652 12.8946 21.5196 12.7071 21.7071L14.1213 23.1213C14.6839 22.5587 15 21.7957 15 21H13ZM12.7071 21.7071C12.5196 21.8946 12.2652 22 12 22V24C12.7957 24 13.5587 23.6839 14.1213 23.1213L12.7071 21.7071ZM12 22C11.7348 22 11.4804 21.8946 11.2929 21.7071L9.87868 23.1213C10.4413 23.6839 11.2043 24 12 24V22ZM11.2929 21.7071C11.1054 21.5196 11 21.2652 11 21H9C9 21.7957 9.31607 22.5587 9.87868 23.1213L11.2929 21.7071Z" fill="#222222" mask="url(#path-1-inside-1_511_7349)"/>
</svg>
