<svg width="23" height="19" viewBox="0 0 23 19" fill="none" xmlns="http://www.w3.org/2000/svg">
<path d="M11.5 4C14.26 4 16.5 6.24 16.5 9C16.5 9.65 16.37 10.26 16.14 10.83L19.06 13.75C20.57 12.49 21.76 10.86 22.49 9C20.76 4.61 16.49 1.5 11.49 1.5C10.09 1.5 8.75 1.75 7.51 2.2L9.67 4.36C10.24 4.13 10.85 4 11.5 4ZM1.5 1.27L3.78 3.55L4.24 4.01C2.58 5.3 1.28 7.02 0.5 9C2.23 13.39 6.5 16.5 11.5 16.5C13.05 16.5 14.53 16.2 15.88 15.66L16.3 16.08L19.23 19L20.5 17.73L2.77 0L1.5 1.27ZM7.03 6.8L8.58 8.35C8.53 8.56 8.5 8.78 8.5 9C8.5 10.66 9.84 12 11.5 12C11.72 12 11.94 11.97 12.15 11.92L13.7 13.47C13.03 13.8 12.29 14 11.5 14C8.74 14 6.5 11.76 6.5 9C6.5 8.21 6.7 7.47 7.03 6.8ZM11.34 6.02L14.49 9.17L14.51 9.01C14.51 7.35 13.17 6.01 11.51 6.01L11.34 6.02Z" fill="#838181" fill-opacity="0.5"/>
</svg>
