<svg width="21" height="20" viewBox="0 0 21 20" fill="none" xmlns="http://www.w3.org/2000/svg">
<path fill-rule="evenodd" clip-rule="evenodd" d="M10.7589 4.16602C10.7589 3.90713 10.549 3.69727 10.2902 3.69727C10.0313 3.69727 9.82141 3.90713 9.82141 4.16602V9.53125H4.45673C4.19784 9.53125 3.98798 9.74112 3.98798 10C3.98798 10.2589 4.19784 10.4688 4.45673 10.4688H9.82141V15.8327C9.82141 16.0916 10.0313 16.3014 10.2902 16.3014C10.549 16.3014 10.7589 16.0916 10.7589 15.8327V10.4688H16.1234C16.3823 10.4688 16.5921 10.2589 16.5921 10C16.5921 9.74112 16.3823 9.53125 16.1234 9.53125H10.7589V4.16602Z" fill="#222222"/>
</svg>
