<svg width="19" height="16" viewBox="0 0 19 16" fill="none" xmlns="http://www.w3.org/2000/svg">
<path d="M10.6839 2.4925L10.6836 2.49273L9.99107 3.15542L9.6454 3.48617L9.29973 3.15541L8.60716 2.49273L8.60657 2.49216C7.00373 0.953412 4.41447 0.725406 2.70316 2.07953L10.6839 2.4925ZM10.6839 2.4925C12.2905 0.953202 14.8763 0.72558 16.5874 2.07936M10.6839 2.4925L16.5874 2.07936M16.5874 2.07936C18.5571 3.64041 18.6574 6.426 16.8966 8.11329L16.8965 8.11339M16.5874 2.07936L16.8965 8.11339M16.8965 8.11339L10.094 14.6357C9.84793 14.8714 9.43936 14.8714 9.19331 14.6357L2.39102 8.1136M16.8965 8.11339L2.39102 8.1136M2.39102 8.1136C0.633461 6.4264 0.733611 3.64074 2.70307 2.07959L2.39102 8.1136Z" stroke="#4154f1"/>
</svg>
