<svg width="53" height="52" viewBox="0 0 53 52" fill="none" xmlns="http://www.w3.org/2000/svg">
<rect x="0.983851" y="0.33871" width="50.8065" height="50.8065" rx="25.4032" stroke="#D9D9D8" stroke-width="0.677419"/>
<g clip-path="url(#clip0_34_1037)">
<path d="M37.9709 29.3992H37.3613V25.2801C37.3613 24.7962 37.1669 24.3313 36.824 23.9883L33.0173 20.1817C32.6744 19.8387 32.2095 19.6444 31.7256 19.6444H30.0451V17.8154C30.0451 16.8056 29.2259 15.9863 28.2161 15.9863H18.4613C17.4515 15.9863 16.6322 16.8056 16.6322 17.8154V19.6444H14.4984C14.3307 19.6444 14.1935 19.7816 14.1935 19.9492V20.5589C14.1935 20.7266 14.3307 20.8637 14.4984 20.8637H24.8629C25.0305 20.8637 25.1677 21.0009 25.1677 21.1686V21.7783C25.1677 21.9459 25.0305 22.0831 24.8629 22.0831H15.7177C15.5501 22.0831 15.4129 22.2203 15.4129 22.3879V22.9976C15.4129 23.1653 15.5501 23.3025 15.7177 23.3025H23.6435C23.8112 23.3025 23.9484 23.4396 23.9484 23.6073V24.217C23.9484 24.3846 23.8112 24.5218 23.6435 24.5218H14.4984C14.3307 24.5218 14.1935 24.659 14.1935 24.8266V25.4363C14.1935 25.604 14.3307 25.7412 14.4984 25.7412H22.4242C22.5918 25.7412 22.729 25.8783 22.729 26.046V26.6557C22.729 26.8233 22.5918 26.9605 22.4242 26.9605H16.6322V31.8379C16.6322 33.8575 18.2707 35.496 20.2903 35.496C22.3099 35.496 23.9484 33.8575 23.9484 31.8379H28.8258C28.8258 33.8575 30.4643 35.496 32.4839 35.496C34.5034 35.496 36.1419 33.8575 36.1419 31.8379H37.9709C38.3063 31.8379 38.5806 31.5636 38.5806 31.2283V30.0089C38.5806 29.6736 38.3063 29.3992 37.9709 29.3992ZM20.2903 33.667C19.2805 33.667 18.4613 32.8477 18.4613 31.8379C18.4613 30.8282 19.2805 30.0089 20.2903 30.0089C21.3001 30.0089 22.1193 30.8282 22.1193 31.8379C22.1193 32.8477 21.3001 33.667 20.2903 33.667ZM32.4839 33.667C31.4741 33.667 30.6548 32.8477 30.6548 31.8379C30.6548 30.8282 31.4741 30.0089 32.4839 30.0089C33.4936 30.0089 34.3129 30.8282 34.3129 31.8379C34.3129 32.8477 33.4936 33.667 32.4839 33.667ZM35.5322 25.7412H30.0451V21.4734H31.7256L35.5322 25.2801V25.7412Z" fill="#4154f1"/>
</g>
<defs>
<clipPath id="clip0_34_1037">
<rect width="24.3871" height="19.5097" fill="white" transform="translate(14.1935 15.9863)"/>
</clipPath>
</defs>
</svg>
