<svg width="36" height="36" viewBox="0 0 36 36" fill="none" xmlns="http://www.w3.org/2000/svg">
<circle cx="18" cy="18" r="18" fill="#4154f1"/>
<path d="M21.5228 11.406C21.598 11.3265 21.6567 11.2329 21.6958 11.1306C21.7348 11.0283 21.7533 10.9194 21.7502 10.81C21.7471 10.7006 21.7224 10.5928 21.6777 10.4929C21.633 10.393 21.569 10.3029 21.4895 10.2277C21.4099 10.1525 21.3163 10.0938 21.214 10.0547C21.1118 10.0157 21.0028 9.99724 20.8934 10.0003C20.784 10.0034 20.6762 10.028 20.5763 10.0728C20.4764 10.1175 20.3863 10.1815 20.3111 10.261L13.2278 17.761C13.0815 17.9158 13 18.1206 13 18.3335C13 18.5465 13.0815 18.7513 13.2278 18.906L20.3111 26.4069C20.3858 26.4882 20.4759 26.5538 20.5762 26.6C20.6764 26.6462 20.7849 26.672 20.8952 26.6759C21.0056 26.6798 21.1156 26.6618 21.2189 26.6228C21.3222 26.5839 21.4167 26.5248 21.497 26.449C21.5772 26.3732 21.6416 26.2822 21.6864 26.1813C21.7312 26.0804 21.7555 25.9716 21.7579 25.8613C21.7604 25.7509 21.7408 25.6411 21.7004 25.5384C21.6601 25.4356 21.5997 25.3419 21.5228 25.2627L14.9795 18.3335L21.5228 11.406Z" fill="white"/>
</svg>
