<svg width="53" height="52" viewBox="0 0 53 52" fill="none" xmlns="http://www.w3.org/2000/svg">
<rect x="0.88708" y="0.33871" width="50.8065" height="50.8065" rx="25.4032" stroke="#D9D9D8" stroke-width="0.677419"/>
<path d="M26.2902 30.8225C26.8292 30.8225 27.3461 30.6084 27.7272 30.2273C28.1083 29.8462 28.3224 29.3292 28.3224 28.7903C28.3224 28.2513 28.1083 27.7344 27.7272 27.3532C27.3461 26.9721 26.8292 26.758 26.2902 26.758C25.7512 26.758 25.2343 26.9721 24.8531 27.3532C24.472 27.7344 24.2579 28.2513 24.2579 28.7903C24.2579 29.3292 24.472 29.8462 24.8531 30.2273C25.2343 30.6084 25.7512 30.8225 26.2902 30.8225ZM32.3869 21.6774C32.9259 21.6774 33.4428 21.8915 33.824 22.2726C34.2051 22.6537 34.4192 23.1706 34.4192 23.7096V33.8709C34.4192 34.4099 34.2051 34.9268 33.824 35.3079C33.4428 35.6891 32.9259 35.9032 32.3869 35.9032H20.1934C19.6544 35.9032 19.1375 35.6891 18.7564 35.3079C18.3752 34.9268 18.1611 34.4099 18.1611 33.8709V23.7096C18.1611 23.1706 18.3752 22.6537 18.7564 22.2726C19.1375 21.8915 19.6544 21.6774 20.1934 21.6774H21.2095V19.6451C21.2095 18.2976 21.7448 17.0053 22.6976 16.0525C23.6504 15.0997 24.9427 14.5645 26.2902 14.5645C26.9574 14.5645 27.618 14.6959 28.2344 14.9512C28.8509 15.2065 29.4109 15.5808 29.8827 16.0525C30.3545 16.5243 30.7287 17.0844 30.9841 17.7008C31.2394 18.3172 31.3708 18.9779 31.3708 19.6451V21.6774H32.3869ZM26.2902 16.5967C25.4817 16.5967 24.7063 16.9179 24.1346 17.4896C23.5629 18.0612 23.2418 18.8366 23.2418 19.6451V21.6774H29.3386V19.6451C29.3386 18.8366 29.0174 18.0612 28.4457 17.4896C27.874 16.9179 27.0986 16.5967 26.2902 16.5967Z" fill="#4154f1"/>
</svg>
