<svg width="52" height="52" viewBox="0 0 52 52" fill="none" xmlns="http://www.w3.org/2000/svg">
<rect x="0.790309" y="0.33871" width="50.8065" height="50.8065" rx="25.4032" stroke="#D9D9D8" stroke-width="0.677419"/>
<g clip-path="url(#clip0_34_1049)">
<path fill-rule="evenodd" clip-rule="evenodd" d="M24.7564 15.6822C25.1161 15.323 25.5974 15.1116 26.1052 15.0898C26.6131 15.0679 27.1108 15.2373 27.4999 15.5643L27.63 15.6832L29.5607 17.6128H32.29C32.8025 17.6129 33.2961 17.8067 33.6718 18.1553C34.0476 18.5039 34.2777 18.9816 34.3161 19.4927L34.3222 19.6451V22.3744L36.2529 24.3051C36.6124 24.6648 36.8239 25.1463 36.8458 25.6544C36.8676 26.1625 36.6981 26.6604 36.3707 27.0496L36.2519 27.1787L34.3212 29.1093V31.8386C34.3214 32.3514 34.1277 32.8452 33.7791 33.2211C33.4305 33.5971 32.9526 33.8274 32.4414 33.8658L32.29 33.8709H29.5617L27.631 35.8015C27.2713 36.1611 26.7898 36.3726 26.2817 36.3944C25.7735 36.4163 25.2757 36.2468 24.8865 35.9194L24.7574 35.8015L22.8268 33.8709H20.0964C19.5837 33.8711 19.0899 33.6774 18.7139 33.3288C18.338 32.9802 18.1077 32.5023 18.0692 31.9911L18.0642 31.8386V29.1093L16.1335 27.1787C15.774 26.8189 15.5625 26.3374 15.5406 25.8293C15.5188 25.3212 15.6883 24.8234 16.0156 24.4341L16.1335 24.3051L18.0642 22.3744V19.6451C18.0643 19.1326 18.258 18.639 18.6066 18.2632C18.9552 17.8875 19.4329 17.6574 19.944 17.6189L20.0964 17.6128H22.8257L24.7564 15.6822ZM29.3219 22.6762L25.0094 26.9887L23.2129 25.1921C23.0222 25.0016 22.7637 24.8946 22.4941 24.8947C22.2246 24.8948 21.9661 25.002 21.7756 25.1926C21.585 25.3833 21.4781 25.6419 21.4782 25.9114C21.4782 26.181 21.5854 26.4394 21.7761 26.63L24.2189 29.0727C24.3227 29.1766 24.4459 29.259 24.5815 29.3152C24.7172 29.3714 24.8626 29.4003 25.0094 29.4003C25.1562 29.4003 25.3016 29.3714 25.4373 29.3152C25.5729 29.259 25.6962 29.1766 25.8 29.0727L30.7587 24.113C30.9438 23.9214 31.0462 23.6647 31.0439 23.3983C31.0416 23.1318 30.9347 22.877 30.7463 22.6886C30.5579 22.5002 30.303 22.3933 30.0366 22.391C29.7702 22.3887 29.5135 22.4911 29.3219 22.6762Z" fill="#4154f1"/>
</g>
<defs>
<clipPath id="clip0_34_1049">
<rect width="24.3871" height="24.3871" fill="white" transform="translate(13.9998 13.5488)"/>
</clipPath>
</defs>
</svg>
