<svg width="36" height="36" viewBox="0 0 36 36" fill="none" xmlns="http://www.w3.org/2000/svg">
<circle cx="18" cy="18" r="18" transform="matrix(-1 0 0 1 36 0)" fill="#4154f1"/>
<path d="M14.4772 11.406C14.402 11.3265 14.3433 11.2329 14.3042 11.1306C14.2652 11.0283 14.2467 10.9194 14.2498 10.81C14.2529 10.7006 14.2776 10.5928 14.3223 10.4929C14.367 10.393 14.431 10.3029 14.5105 10.2277C14.5901 10.1525 14.6837 10.0938 14.786 10.0547C14.8882 10.0157 14.9972 9.99724 15.1066 10.0003C15.216 10.0034 15.3238 10.028 15.4237 10.0728C15.5236 10.1175 15.6137 10.1815 15.6889 10.261L22.7722 17.761C22.9185 17.9158 23 18.1206 23 18.3335C23 18.5465 22.9185 18.7513 22.7722 18.906L15.6889 26.4069C15.6142 26.4882 15.5241 26.5538 15.4238 26.6C15.3236 26.6462 15.2151 26.672 15.1048 26.6759C14.9944 26.6798 14.8844 26.6618 14.7811 26.6228C14.6778 26.5839 14.5833 26.5248 14.503 26.449C14.4228 26.3732 14.3584 26.2822 14.3136 26.1813C14.2688 26.0804 14.2445 25.9716 14.2421 25.8613C14.2396 25.7509 14.2592 25.6411 14.2996 25.5384C14.3399 25.4356 14.4003 25.3419 14.4772 25.2627L21.0205 18.3335L14.4772 11.406Z" fill="white"/>
</svg>
