<svg width="20" height="20" viewBox="0 0 20 20" fill="none" xmlns="http://www.w3.org/2000/svg">
<path d="M1.5 6.7V6.42028L1.26163 6.27391C0.80981 5.99648 0.5 5.52374 0.5 5.01V2C0.5 1.19198 1.26003 0.5 2 0.5H18C18.74 0.5 19.5 1.19198 19.5 2V5.01C19.5 5.52374 19.1902 5.99648 18.7384 6.27391L18.5 6.42028V6.7V18C18.5 18.3797 18.3083 18.7551 17.9959 19.0474C17.6789 19.3439 17.2958 19.5 17 19.5H3C2.70424 19.5 2.32111 19.3439 2.00408 19.0474C1.6917 18.7551 1.5 18.3797 1.5 18V6.7ZM18 5.5H18.5V5V2V1.5H18H2H1.5V2V5V5.5H2H18ZM8 12.5H12C12.8261 12.5 13.5 11.8261 13.5 11C13.5 10.1739 12.8261 9.5 12 9.5H8C7.17386 9.5 6.5 10.1739 6.5 11C6.5 11.8261 7.17386 12.5 8 12.5Z" stroke="#222222"/>
</svg>
