<svg width="18" height="16" viewBox="0 0 18 16" fill="none" xmlns="http://www.w3.org/2000/svg">
<path d="M9.00044 15.25C8.74954 15.2497 8.50454 15.1739 8.29731 15.0324C5.22739 12.9484 3.89809 11.5195 3.16489 10.6262C1.60239 8.72188 0.85434 6.7668 0.875434 4.64961C0.900043 2.22344 2.84653 0.25 5.2145 0.25C6.93637 0.25 8.12895 1.21992 8.82348 2.02773C8.84548 2.05307 8.87267 2.07338 8.9032 2.0873C8.93372 2.10122 8.96688 2.10842 9.00044 2.10842C9.03399 2.10842 9.06715 2.10122 9.09768 2.0873C9.12821 2.07338 9.15539 2.05307 9.17739 2.02773C9.87192 1.21914 11.0645 0.25 12.7864 0.25C15.1543 0.25 17.1008 2.22344 17.1254 4.65C17.1465 6.76758 16.3977 8.72266 14.836 10.6266C14.1028 11.5199 12.7735 12.9488 9.70356 15.0328C9.49629 15.1741 9.2513 15.2498 9.00044 15.25Z" fill="#222222"/>
</svg>
